<svg xmlns="http://www.w3.org/2000/svg" version="1.1" xmlns:xlink="http://www.w3.org/1999/xlink" xmlns:svgjs="http://svgjs.dev/svgjs" width="500" height="500" viewBox="0 0 1000 1181"><g transform="matrix(1,0,0,1,-0.22436648319040842,0.4790205902758089)"><svg viewBox="0 0 209 247" data-background-color="#8b3c7f" preserveAspectRatio="xMidYMid meet" height="1181" width="1000" xmlns="http://www.w3.org/2000/svg" xmlns:xlink="http://www.w3.org/1999/xlink"><g id="tight-bounds" transform="matrix(1,0,0,1,0.047019391307117075,-0.09997365579206985)"><svg viewBox="0 0 208.90597333333335 247.2" height="247.2" width="208.90597333333335"><g><svg viewBox="0 0 208.90597333333335 247.2" height="247.2" width="208.90597333333335"><g><svg viewBox="0 0 208.90597333333335 247.2" height="247.2" width="208.90597333333335"><g id="textblocktransform"><svg viewBox="0 0 208.90597333333335 247.2" height="247.2" width="208.90597333333335" id="textblock"><g><svg viewBox="0 0 208.90597333333335 247.2" height="247.2" width="208.90597333333335"><path d="M208.417 53.02C207.435 27.36 204.636 20.227 204.636 20.227 196.042-6.202 185.318-0.506 175.683 3.292 158.673 3.446 141.731 9.091 124.761 12.119 89.139 12.581 53.214 4.986 17.769 23.717 14.44 29.464-3.454 24.846 0.592 56.304 1.653 69.39 5.522 83.913 5.405 95.922 5.935 98.026 6.671 93.202 6.986 96.23 8.086 104.39 9.883 100.541 11.356 105.365 9.304 118.246 10.777 128.971 12.181 140.21 9.706 143.135 6.534 141.749 5.11 151.449 4.963 158.479 4.167 157.145 3.293 156.837 2.655 156.632 1.368 157.402 1.584 159.608 2.321 167.152-0.842 171.514 1.142 178.904-0.223 186.91 2.085 193.838 1.771 202.511 1.731 204.255 1.948 205.744 2.291 206.154 3.814 208.361 1.594 212.672 1.83 217.342 17.445 249.262 34.387 227.195 50.385 241.872 54.54 231.608 51.416 245.516 53.076 243.36 54.373 240.846 55.315 251.263 56.779 245.362 57.005 243.668 56.661 239.665 57.466 240.435 57.889 240.846 58.262 240.743 58.321 238.382 58.409 234.841 57.633 237.048 57.427 235.201 59.656 225.861 59.106 248.081 61.198 247.158 61.1 244.438 60.491 240.538 61.738 241.051 62.976 237.151 63.015 233.918 64.115 242.693 64.154 244.592 64.351 245.926 64.665 246.85 68.103 237.305 71.52 250.237 75.125 245.926 77.334 241.205 79.456 248.492 81.695 246.696 82.481 245.259 83.276 242.693 84.032 247.004 93.294 247.928 103.164 244.079 111.944 247.158 135.407 241.41 160.48 249.518 185.219 241.923 191.053 238.998 197.113 234.841 202.799 231.506 202.799 231.506 207.405 222.371 207.405 181.316S208.387 145.393 208.535 112.703C208.682 80.013 209.37 78.679 208.387 53.02Z" opacity="1" fill="#ffffff" data-fill-palette-color="tertiary"></path><g transform="matrix(1,0,0,1,55.76832000000001,26.230666666666668)"><svg width="97.36933333333333" viewBox="0.49000000953674316 -35.0099983215332 17.5 35.0099983215332" height="194.73866666666666" data-palette-color="#8b3c7f"><path d="M17.99-35.01L17.99-13.99Q17.99-11.08 16.89-8.53 15.8-5.98 13.9-4.09 12.01-2.2 9.46-1.1 6.91 0 4 0L4 0Q2.25 0 0.49-0.44L0.49-0.44 0.49-7.96Q1.27-7.5 2.17-7.25 3.08-7.01 4-7.01L4-7.01Q5.44-7.01 6.73-7.56 8.01-8.11 8.96-9.06 9.91-10.01 10.46-11.28 11.01-12.55 11.01-13.99L11.01-13.99 11.01-35.01 17.99-35.01Z" opacity="1" transform="matrix(1,0,0,1,0,0)" fill="#8b3c7f" class="wordmark-text-0" data-fill-palette-color="quaternary" id="text-0"></path></svg></g></svg></g></svg></g></svg></g><g></g></svg></g><defs></defs></svg><rect width="208.90597333333335" height="247.2" fill="none" stroke="none" visibility="hidden"></rect></g></svg></g></svg>